<svg width="200" height="200" viewBox="0 0 200 200" fill="none" xmlns="http://www.w3.org/2000/svg">
<rect width="200" height="200" rx="32" fill="#09090B"/>
<g clip-path="url(#clip0_80_23)">
<path d="M164.269 130.212C161.711 125.002 159.241 119.746 156.733 114.512C155.757 112.474 154.773 110.438 153.794 108.401C152.162 104.952 150.54 101.496 148.897 98.0505C144.233 88.2836 139.56 78.5233 134.89 68.7608C133.524 65.9039 132.126 63.06 130.802 60.1836C129.076 56.4366 126.45 53.532 122.8 51.6129C117.531 48.8407 111.505 49.7025 107.343 53.7491C103.414 57.5677 102.446 63.3878 104.877 68.446C111.281 81.7775 117.668 95.1154 124.077 108.443C126.159 112.771 128.284 117.078 130.39 121.396C130.414 121.5 130.418 121.616 130.463 121.711C133.47 128.078 136.399 134.485 139.518 140.795C141.463 144.731 144.6 147.538 148.764 149.053C155.77 151.604 163.066 148.296 165.276 141.57C166.561 137.658 166.077 133.892 164.271 130.212H164.269Z" fill="#FB923C"/>
<path d="M69.7947 79.1341C69.6818 78.904 69 79.5 68.5 79C66.5614 82.9684 65.3176 86.4481 63.3942 90.4469C61.2515 94.9038 59.1501 99.3801 57.0291 103.848C56.9553 103.972 56.8685 104.089 56.8077 104.219C52.5137 113.285 48.2088 122.344 43.9343 131.42C42.9835 133.441 42.5493 135.593 42.6035 137.842C42.7794 145.173 49.0967 150.657 56.3344 149.708C61.944 148.974 65.8755 145.772 68.7845 141.109C69.5877 139.822 70.1131 138.398 70.7557 137.032C72.2775 133.795 73.7732 130.548 75.2777 127.304C78.3299 121.274 80.8829 115.008 83.8657 108.945C84.0915 108.485 83.9525 108.133 83.7572 107.729C79.1093 98.1818 74.4701 88.6299 69.8222 79.0845L69.7947 79.1341Z" fill="#FB923C"/>
<path d="M68.5 79H98.5L129 141L74.7538 108.397L68.5 79Z" fill="#FB923C"/>
</g>
<defs>
<clipPath id="clip0_80_23">
<rect width="131.997" height="100" fill="white" transform="translate(34 50)"/>
</clipPath>
</defs>
</svg>
