<svg width="31" height="26" viewBox="0 0 31 26" fill="none" xmlns="http://www.w3.org/2000/svg">
<path d="M29.9471 20.5636C29.3515 19.261 28.7761 17.9471 28.1921 16.6386C27.9646 16.129 27.7356 15.6199 27.5076 15.1108C27.1274 14.2484 26.7497 13.3844 26.3669 12.5231C25.2809 10.0814 24.1924 7.64132 23.1048 5.2007C22.7868 4.48647 22.4612 3.77551 22.1528 3.0564C21.7509 2.11966 21.1391 1.3935 20.2892 0.913728C19.0621 0.220671 17.6586 0.436132 16.6893 1.44777C15.7742 2.40242 15.5487 3.85746 16.115 5.122C17.6065 8.45487 19.094 11.7894 20.5865 15.1211C21.0713 16.2033 21.5663 17.2801 22.0567 18.3596C22.0623 18.3856 22.0633 18.4144 22.0739 18.4383C22.7742 20.0301 23.4562 21.6316 24.1828 23.2093C24.6358 24.1933 25.3664 24.895 26.3361 25.2739C27.9677 25.9116 29.667 25.0844 30.1817 23.4031C30.481 22.4251 30.3677 21.4835 29.9471 20.5636Z" fill="#FB923C"/>
<path d="M7.05236 7.79427C7.02309 7.73674 6.84628 7.88574 6.71662 7.76074C6.2139 8.75284 5.89136 9.62278 5.39258 10.6225C4.83695 11.7367 4.29201 12.8558 3.742 13.9727C3.72286 14.0036 3.70034 14.0329 3.68458 14.0655C2.57106 16.3319 1.45472 18.5967 0.346263 20.8658C0.0996888 21.3711 -0.0129023 21.9089 0.00117157 22.4712C0.0467708 24.304 1.68497 25.6749 3.56186 25.4377C5.01653 25.2543 6.03604 24.4538 6.7904 23.288C6.99869 22.9662 7.13492 22.6101 7.30156 22.2688C7.69619 21.4596 8.08406 20.6477 8.47419 19.8368C9.2657 18.3291 9.92774 16.7628 10.7012 15.247C10.7598 15.132 10.7238 15.044 10.6731 14.9431C9.4678 12.5562 8.26477 10.1682 7.05949 7.78186L7.05236 7.79427Z" fill="#FB923C"/>
<path d="M6.71655 7.76074H14.4961L22.4054 23.2607L8.33829 15.1099L6.71655 7.76074Z" fill="#FB923C"/>
</svg>
